<svg width="1331" height="115" viewBox="0 0 1331 115" fill="none" xmlns="http://www.w3.org/2000/svg">
<path d="M-0.0010839 1.48996H20.4119L53.6389 88.506L86.7169 1.48996H106.534L64.0689 112.793H42.4639L-0.0010839 1.48996ZM127.464 1.48996H146.685V112.793H127.464V1.48996ZM167.519 1.48996H256.919V19.668H221.755V112.793H202.534V19.668H167.519V1.48996ZM321.787 18.178C303.907 18.178 288.709 31.588 288.709 57.216C288.709 82.695 303.907 96.254 321.787 96.254C339.667 96.254 355.014 82.695 355.014 57.216C355.014 31.588 339.667 18.178 321.787 18.178ZM321.787 -3.5584e-05C352.779 -3.5584e-05 374.831 21.307 374.831 57.216C374.831 92.976 352.779 114.283 321.787 114.283C290.944 114.283 268.892 92.976 268.892 57.216C268.892 21.307 290.944 -3.5584e-05 321.787 -3.5584e-05ZM400.128 1.48996H439.613C465.837 1.48996 483.27 16.241 483.27 40.677C483.27 56.024 476.267 67.795 464.198 74.351L486.399 112.793H463.751L444.679 79.864C442.891 80.013 441.401 80.013 439.613 80.013H419.349V112.793H400.128V1.48996ZM419.349 61.835H436.782C452.129 61.835 463.453 54.981 463.453 40.677C463.453 26.522 452.129 19.668 436.782 19.668H419.349V61.835ZM618.854 -3.5584e-05C649.399 -3.5584e-05 667.279 20.562 668.024 41.72H647.611C646.568 29.949 636.287 18.327 618.854 18.327C601.421 18.327 587.564 31.737 587.564 57.216C587.564 82.546 601.421 96.105 618.854 96.105C636.287 96.105 646.568 84.483 647.611 72.712H668.024C667.279 93.721 649.399 114.283 619.152 114.283C588.756 114.283 567.747 93.572 567.747 57.216C567.747 20.711 588.756 -3.5584e-05 618.854 -3.5584e-05ZM698.205 88.655C705.506 88.655 711.168 94.317 711.168 101.618C711.168 108.77 705.506 114.73 698.205 114.73C691.053 114.73 685.242 108.77 685.242 101.618C685.242 94.317 691.053 88.655 698.205 88.655ZM842.191 -3.5584e-05C872.736 -3.5584e-05 890.616 20.562 891.361 41.72H870.948C869.905 29.949 859.624 18.327 842.191 18.327C824.758 18.327 810.901 31.737 810.901 57.216C810.901 82.546 824.758 96.105 842.191 96.105C859.624 96.105 869.905 84.483 870.948 72.712H891.361C890.616 93.721 872.736 114.283 842.489 114.283C812.093 114.283 791.084 93.572 791.084 57.216C791.084 20.711 812.093 -3.5584e-05 842.191 -3.5584e-05ZM963.726 18.178C945.846 18.178 930.648 31.588 930.648 57.216C930.648 82.695 945.846 96.254 963.726 96.254C981.606 96.254 996.953 82.695 996.953 57.216C996.953 31.588 981.606 18.178 963.726 18.178ZM963.726 -3.5584e-05C994.718 -3.5584e-05 1016.77 21.307 1016.77 57.216C1016.77 92.976 994.718 114.283 963.726 114.283C932.883 114.283 910.831 92.976 910.831 57.216C910.831 21.307 932.883 -3.5584e-05 963.726 -3.5584e-05ZM1082.24 -3.5584e-05C1108.32 -3.5584e-05 1122.47 13.559 1122.47 33.078H1102.51C1102.51 23.84 1095.2 16.986 1081.94 16.986C1069.87 16.986 1062.42 23.095 1062.42 30.694C1062.42 38.293 1066.6 42.763 1078.52 45.892L1092.97 49.617C1114.72 55.279 1124.71 64.517 1124.71 82.099C1124.71 100.724 1110.7 114.283 1082.99 114.283C1055.27 114.283 1039.93 99.83 1039.93 78.672H1059.89C1059.89 90.145 1068.68 98.787 1083.14 98.787C1097.29 98.787 1104.74 91.635 1104.74 82.397C1104.74 74.5 1100.42 70.179 1087.9 67.199L1074.05 63.921C1050.65 58.408 1042.31 47.233 1042.31 30.992C1042.31 13.112 1056.61 -3.5584e-05 1082.24 -3.5584e-05ZM1136.69 1.48996H1226.09V19.668H1190.92V112.793H1171.7V19.668H1136.69V1.48996ZM1265.54 1.48996H1287.15L1330.21 112.793H1310.24L1301.9 90.592H1250.05L1241.7 112.793H1222.33L1265.54 1.48996ZM1256.9 72.265H1295.05L1275.97 21.307L1256.9 72.265Z" fill="black"/>
</svg>
